<mxfile host="app.diagrams.net" modified="2022-03-10T10:41:18.543Z" agent="5.0 (Windows NT 10.0; Win64; x64) AppleWebKit/537.36 (KHTML, like Gecko) Chrome/99.0.4844.51 Safari/537.36" etag="ZK-ul0F-jsHTahy_6owB" version="17.1.0" type="github">
  <diagram id="lTrjK-uo7Ei4nFgALIAb" name="Page-1">
    <mxGraphModel dx="1422" dy="794" grid="1" gridSize="10" guides="1" tooltips="1" connect="1" arrows="1" fold="1" page="1" pageScale="1" pageWidth="827" pageHeight="1169" math="0" shadow="0">
      <root>
        <mxCell id="0" />
        <mxCell id="1" parent="0" />
        <mxCell id="WeZFGwxaNK5Sr3wwwoaQ-1" value="joueur" style="rounded=1;whiteSpace=wrap;html=1;" parent="1" vertex="1">
          <mxGeometry x="90" y="190" width="120" height="30" as="geometry" />
        </mxCell>
        <mxCell id="WeZFGwxaNK5Sr3wwwoaQ-2" value="joueur_id&lt;br&gt;joueur_pseudo&lt;br&gt;joueur_mdp&lt;br&gt;joueur_mail&lt;br&gt;joueur_elo" style="rounded=1;whiteSpace=wrap;html=1;" parent="1" vertex="1">
          <mxGeometry x="90" y="220" width="120" height="100" as="geometry" />
        </mxCell>
        <mxCell id="WeZFGwxaNK5Sr3wwwoaQ-3" value="objectif" style="rounded=1;whiteSpace=wrap;html=1;" parent="1" vertex="1">
          <mxGeometry x="490" y="190" width="120" height="30" as="geometry" />
        </mxCell>
        <mxCell id="WeZFGwxaNK5Sr3wwwoaQ-4" value="objectif_id&lt;br&gt;objectif_timing_smite&lt;br&gt;objectif_duree" style="rounded=1;whiteSpace=wrap;html=1;" parent="1" vertex="1">
          <mxGeometry x="490" y="220" width="120" height="100" as="geometry" />
        </mxCell>
        <mxCell id="WeZFGwxaNK5Sr3wwwoaQ-5" value="jouer" style="ellipse;whiteSpace=wrap;html=1;" parent="1" vertex="1">
          <mxGeometry x="320" y="220" width="80" height="50" as="geometry" />
        </mxCell>
        <mxCell id="WeZFGwxaNK5Sr3wwwoaQ-6" value="" style="endArrow=none;html=1;rounded=0;exitX=1;exitY=0.5;exitDx=0;exitDy=0;entryX=0;entryY=0.5;entryDx=0;entryDy=0;" parent="1" source="WeZFGwxaNK5Sr3wwwoaQ-2" target="WeZFGwxaNK5Sr3wwwoaQ-5" edge="1">
          <mxGeometry width="50" height="50" relative="1" as="geometry">
            <mxPoint x="390" y="410" as="sourcePoint" />
            <mxPoint x="440" y="360" as="targetPoint" />
          </mxGeometry>
        </mxCell>
        <mxCell id="WeZFGwxaNK5Sr3wwwoaQ-7" value="" style="endArrow=none;html=1;rounded=0;exitX=1;exitY=0.5;exitDx=0;exitDy=0;entryX=0;entryY=0.5;entryDx=0;entryDy=0;" parent="1" source="WeZFGwxaNK5Sr3wwwoaQ-5" target="WeZFGwxaNK5Sr3wwwoaQ-4" edge="1">
          <mxGeometry width="50" height="50" relative="1" as="geometry">
            <mxPoint x="220" y="280" as="sourcePoint" />
            <mxPoint x="330" y="255" as="targetPoint" />
          </mxGeometry>
        </mxCell>
        <mxCell id="WeZFGwxaNK5Sr3wwwoaQ-8" value="0,n" style="text;html=1;strokeColor=none;fillColor=none;align=center;verticalAlign=middle;whiteSpace=wrap;rounded=0;" parent="1" vertex="1">
          <mxGeometry x="250" y="210" width="60" height="30" as="geometry" />
        </mxCell>
        <mxCell id="WeZFGwxaNK5Sr3wwwoaQ-9" value="0,n" style="text;html=1;strokeColor=none;fillColor=none;align=center;verticalAlign=middle;whiteSpace=wrap;rounded=0;" parent="1" vertex="1">
          <mxGeometry x="430" y="210" width="60" height="30" as="geometry" />
        </mxCell>
      </root>
    </mxGraphModel>
  </diagram>
</mxfile>
